Coordinates
version=1
nRows=11
nColumns=40
inDegrees=yes

Units are S.I. units (second, meters, Newtons, ...)
Angles are in degrees.

endheader
time	pelvis_tilt	pelvis_list	pelvis_rotation	pelvis_tx	pelvis_ty	pelvis_tz	hip_flexion_r	hip_adduction_r	hip_rotation_r	knee_angle_r	knee_angle_r_beta	ankle_angle_r	subtalar_angle_r	mtp_angle_r	hip_flexion_l	hip_adduction_l	hip_rotation_l	knee_angle_l	knee_angle_l_beta	ankle_angle_l	subtalar_angle_l	mtp_angle_l	lumbar_extension	lumbar_bending	lumbar_rotation	arm_flex_r	arm_add_r	arm_rot_r	elbow_flex_r	pro_sup_r	wrist_flex_r	wrist_dev_r	arm_flex_l	arm_add_l	arm_rot_l	elbow_flex_l	pro_sup_l	wrist_flex_l	wrist_dev_l
      2.10000000	      4.98415918	     -4.81289956	      1.25597282	      0.79861345	      0.90547698	      1.47343500	     -6.42685199	      5.96719207	    -20.87977539	    -17.32752310	     -0.30242233	      9.86557721	      8.43736779	     -5.85885627	     18.54494576	      8.94466912	     13.64901556	    -41.73969463	     -0.72849510	      4.31745019	      1.90489482	    -14.92415337	    -11.22370622	      6.64340524	      5.59263311	     13.78287143	    -13.76768619	     17.28700244	     21.46047052	     89.95437384	      0.00000000	      0.00000000	      0.63778156	      7.45339196	    -17.20735200	     17.12651222	     89.95437384	      0.00000000	      0.00000000
      2.11000000	      5.26338115	     -4.55290813	      0.58690286	      0.80859763	      0.90544821	      1.47395759	     -7.62652181	      5.56268338	    -20.43700500	    -17.05037395	     -0.29758516	     10.05531500	      9.40719835	     -6.18847239	     18.15488375	      8.70778048	     15.15009145	    -38.71730184	     -0.67574439	      4.21460138	      1.23774675	    -14.83711827	    -11.58433935	      6.21163480	      6.37256891	     14.15741484	    -13.97013277	     17.38974340	     22.09307703	     89.95437384	      0.00000000	      0.00000000	      0.11563561	      7.45089000	    -16.99445144	     17.07476792	     89.95437384	      0.00000000	      0.00000000
      2.12000000	      4.82953495	     -4.83563637	      0.48325178	      0.81750300	      0.90400296	      1.47384196	     -7.79630653	      5.79415002	    -20.52724597	    -17.06039135	     -0.29776000	     10.07712066	      9.56519240	     -6.24076192	     19.13596858	      8.82156459	     15.63124056	    -36.27797479	     -0.63317011	      3.96156834	      1.06792777	    -14.55999618	    -11.20769188	      6.47607595	      6.54985468	     14.63484802	    -14.14097397	     17.41218313	     22.61501908	     89.95437384	      0.00000000	      0.00000000	     -0.47891086	      7.40458338	    -16.92719341	     17.12438593	     89.95437384	      0.00000000	      0.00000000
      2.13000000	      4.90579523	     -4.78377919	      0.16198343	      0.82728684	      0.90327648	      1.47382353	     -8.65083314	      5.52138985	    -20.86650756	    -17.00543383	     -0.29680081	     10.18518971	     10.83696734	     -6.94524343	     19.12225092	      8.72338152	     16.89601545	    -33.41555036	     -0.58321138	      3.20903790	      0.32271686	    -14.14205006	    -11.33612059	      6.34117069	      6.86306572	     15.04815456	    -14.37531683	     17.95909304	     23.28475935	     89.95437384	      0.00000000	      0.00000000	     -1.05674980	      7.34551159	    -16.51594194	     17.08483235	     89.95437384	      0.00000000	      0.00000000
      2.14000000	      4.41758343	     -5.01621146	     -0.02110684	      0.83647235	      0.90158612	      1.47379223	     -8.75669726	      5.69740802	    -20.74031393	    -17.07369400	     -0.29799218	     10.35212139	     10.91920882	     -7.05795437	     19.99499205	      8.81336193	     17.50928643	    -30.91132668	     -0.53950443	      2.22999604	      0.21304617	    -13.68968352	    -10.87813581	      6.53389011	      7.09808422	     15.38733513	    -14.52324307	     18.02722116	     23.85396786	     89.95437384	      0.00000000	      0.00000000	     -1.65955065	      7.31264378	    -16.35129572	     17.13439742	     89.95437384	      0.00000000	      0.00000000
      2.15000000	      3.95263674	     -5.33038663	     -0.18331136	      0.84535315	      0.89985668	      1.47362684	     -8.84984547	      5.94216016	    -20.67739439	    -17.16961997	     -0.29966640	     10.47956599	     10.99153681	     -7.12541762	     20.82230155	      8.97722029	     17.98214393	    -28.43879272	     -0.49635057	      1.13544717	      0.00564918	    -13.27489084	    -10.51034161	      6.83809597	      7.31293722	     15.77692123	    -14.71366272	     18.14861257	     24.43471692	     89.95437384	      0.00000000	      0.00000000	     -2.22973335	      7.25282245	    -16.15292861	     17.30830432	     89.95437384	      0.00000000	      0.00000000
      2.16000000	      3.49849169	     -5.56421648	     -0.36618595	      0.85437559	      0.89814123	      1.47351958	     -8.97765181	      6.09897422	    -20.52997237	    -17.25552857	     -0.30116579	     10.58433972	     11.11389149	     -7.20859977	     21.52035353	      9.07334674	     18.55634802	    -25.91814459	     -0.45235696	     -0.48348347	     -0.16056908	    -12.81432156	    -10.15307583	      7.04424987	      7.50413162	     16.14329628	    -14.83770024	     18.24276997	     24.95346987	     89.95437384	      0.00000000	      0.00000000	     -2.74122930	      7.19802016	    -15.92909621	     17.31295059	     89.95437384	      0.00000000	      0.00000000
      2.17000000	      3.15658611	     -5.68755747	     -0.56202786	      0.86344294	      0.89658304	      1.47323925	     -9.20134928	      6.09939075	    -20.35874910	    -17.39463111	     -0.30359359	     10.73035270	     11.30059661	     -7.34820667	     21.99978451	      9.10108156	     19.40206823	    -23.48890310	     -0.40995870	     -2.54904009	     -0.40501360	    -12.29795220	     -9.93907602	      7.12854877	      7.68522160	     16.50284463	    -14.99023803	     18.43173426	     25.51924106	     89.95437384	      0.00000000	      0.00000000	     -3.18242854	      7.08396600	    -15.59745669	     17.23491619	     89.95437384	      0.00000000	      0.00000000
      2.18000000	      2.77884385	     -5.87191023	     -0.73509028	      0.87250731	      0.89490860	      1.47292111	     -9.36159376	      6.16964778	    -20.22745202	    -17.58469827	     -0.30691088	     10.82659228	     11.42830647	     -7.47366505	     22.51966482	      9.16808230	     20.06683624	    -21.34934476	     -0.37261636	     -4.07695786	     -0.78306501	    -11.88859073	     -9.68739041	      7.28421065	      7.87470424	     16.79916738	    -15.11009168	     18.46531307	     26.03399329	     89.95437384	      0.00000000	      0.00000000	     -3.58019329	      6.97849375	    -15.30042346	     17.13802232	     89.95437384	      0.00000000	      0.00000000
      2.19000000	      2.50486672	     -5.94637642	     -0.97252709	      0.88222086	      0.89335526	      1.47261881	     -9.67186715	      6.08136502	    -20.08933192	    -17.79079502	     -0.31050795	     10.91005544	     11.62523840	     -7.66436018	     22.80513748	      9.19437916	     21.09709103	    -19.39762380	     -0.33855240	     -5.13255220	     -1.45649949	    -11.59641990	     -9.49791364	      7.30323457	      8.06084235	     17.03842340	    -15.14935406	     18.49776641	     26.43908626	     89.95437384	      0.00000000	      0.00000000	     -4.02092597	      6.84386191	    -14.83711478	     16.96018966	     89.95437384	      0.00000000	      0.00000000
      2.20000000	      2.23407247	     -6.26243072	     -0.89384724	      0.89121742	      0.89171926	      1.47184992	     -9.98068674	      6.33328853	    -20.22699686	    -17.86445620	     -0.31179358	     10.98235298	     11.59871627	     -7.67968373	     23.54205319	      9.38522247	     21.73525917	    -18.30235310	     -0.31943632	     -4.94440208	     -1.49742427	    -11.51762443	     -9.38716581	      7.64371227	      7.92002333	     17.42642323	    -15.13441240	     18.43874000	     26.74106156	     89.95437384	      0.00000000	      0.00000000	     -4.31059168	      6.72285726	    -14.85012464	     16.75790533	     89.95437384	      0.00000000	      0.00000000
